<svg width="136" height="41" viewBox="0 0 136 41" fill="none" xmlns="http://www.w3.org/2000/svg">
<path d="M35.0495 0.456206C35.3758 0.456206 35.702 0.566039 36.0283 0.620958C36.0283 1.33488 35.5933 1.49963 35.2127 1.60947C31.5696 2.70781 29.1771 5.45368 27.1652 8.4192C24.0659 12.8675 21.1297 17.5355 19.1722 22.6977C18.0303 25.7181 17.0516 28.7935 15.9641 31.8139C15.0397 34.2303 13.9523 36.5368 12.2123 38.4589C11.451 39.2827 10.4723 39.9417 9.54793 40.6007C8.78669 41.095 7.80795 41.1499 7.04671 40.6556C6.12234 40.1064 5.90484 39.063 6.01359 38.0745C6.23109 35.768 6.61171 33.4065 6.77484 31.1C6.88358 29.6722 6.82921 28.1894 6.82921 26.7066C6.82921 26.1575 6.72046 25.5534 6.72046 25.0042C6.77484 21.5444 6.39421 18.1396 6.17672 14.6798C5.95922 11.3847 5.30673 8.19954 4.16486 5.12417C3.72987 3.97091 4.16486 3.3119 5.3611 3.14715C5.7961 3.03732 6.28547 3.09223 6.77484 3.09223C7.53608 3.14715 8.02545 3.53157 8.46044 4.19058C9.38481 5.67334 9.60231 7.32086 10.0373 8.91346C10.9073 11.8241 10.8529 14.8994 11.1248 17.865C11.3967 21.16 11.6142 24.51 11.6142 27.805C11.6142 30.6058 11.2335 33.3516 11.016 36.1524C11.016 36.5368 10.9617 36.8663 10.8529 37.4155C11.6142 36.9762 11.9404 36.427 12.2123 35.8229C13.4629 33.5164 14.3329 31.1 15.1485 28.6287C16.5622 24.0157 18.3022 19.5125 20.8034 15.3937C22.1628 13.197 23.4134 10.9454 24.7184 8.74871C26.3496 6.22252 28.3071 3.97091 30.6996 2.10372C31.9502 1.11521 33.4727 0.566039 35.0495 0.456206Z" fill="#7165FF"/>
<path d="M39.0919 22.5879C39.5269 21.9288 40.0163 21.5993 41.1038 21.6543C40.8863 22.2583 40.7775 22.6977 40.56 23.0272C39.7988 24.0157 39.0376 25.0042 38.2219 25.8829C37.4063 26.8165 36.482 27.6952 35.7207 28.6287C33.872 30.8254 31.4251 31.4844 28.7064 31.1C26.5314 30.7705 25.1721 29.2328 24.9546 26.9263C24.9002 26.2124 24.9546 25.4985 25.1177 24.8395C25.3896 23.6313 25.7158 22.4231 26.2052 21.2698C26.9664 19.5674 27.9995 18.0846 29.6308 17.0412C30.827 16.3273 32.1864 16.1625 33.5457 16.3273C34.8507 16.492 35.177 17.0412 34.9051 18.3043C34.4701 20.1715 33.7089 21.8739 32.0233 23.0272C31.7514 23.3018 31.4795 23.6313 31.1533 23.8509C29.3045 24.9493 29.4677 26.7616 29.6308 28.5189C29.6852 29.3976 30.0658 29.7271 30.8814 29.6173C31.9145 29.5074 32.8932 29.2328 33.6545 28.5189C35.0138 27.2558 36.3732 25.9378 37.6238 24.6198C38.2219 24.0157 38.6569 23.3018 39.0919 22.5879ZM33.8176 17.5904C32.8389 17.2609 32.6757 17.3158 32.3495 18.0846C31.7514 19.4576 31.2076 20.8305 30.6639 22.2034C30.5551 22.3682 30.6095 22.5879 30.5551 22.8075C32.6214 21.5993 33.6545 19.842 33.8176 17.5904Z" fill="#7165FF"/>
<path d="M55.0287 5.50859C55.1919 6.00285 54.92 6.38727 54.3219 6.60694C53.7781 6.8266 53.2887 6.93644 52.6906 7.04627C49.9719 7.4307 49.3738 7.54053 46.5463 7.92495C46.1113 9.51755 45.6763 11.3847 45.2413 13.0872C43.8276 18.6338 42.6857 24.2354 41.9245 29.9468C41.7614 31.1549 41.7614 32.418 41.7614 33.6811C41.7614 34.5598 41.9789 35.4385 42.7945 36.1524C43.1751 35.8778 43.6101 35.6582 43.882 35.3287C45.622 33.4065 47.0901 31.3197 48.2319 29.0132C49.1563 27.0361 50.1894 25.0591 51.2225 23.137C51.5488 22.5329 51.9294 21.9838 52.3644 21.5444C52.9625 20.9403 53.5606 20.9403 54.05 21.3248C54.5937 21.7641 54.4306 22.3133 54.1587 22.8624C53.5606 24.0157 53.0169 25.169 52.3644 26.2124C50.8963 28.6287 49.4825 30.9902 47.9601 33.2967C47.3619 34.2303 46.6007 35.0541 45.8938 35.9327C44.3713 37.7999 40.7826 38.0196 38.9339 36.1524C38.1183 35.3287 37.7377 34.2852 37.7377 33.132C37.6833 31.759 37.6833 30.3861 37.9552 29.0681C39.0427 23.7411 39.5864 18.3043 41.0545 13.0323C41.4351 11.7692 41.8701 10.5061 42.2507 9.24296C42.3051 9.07821 42.4139 8.91346 42.4682 8.58396C40.3476 8.58396 37.8464 9.51755 35.2364 9.84705C34.8014 9.90197 34.149 10.0118 34.2577 9.57247C34.2577 9.24296 34.584 8.91346 34.9102 8.69379C35.2908 8.52904 35.7802 8.19954 36.2152 8.0897C39.6408 7.59545 39.3689 7.48561 42.8489 6.99136C43.5014 5.28892 43.9907 3.47665 44.1538 1.66439C44.2626 -0.0929663 45.2413 -0.202803 46.6551 0.18162C46.9269 0.236536 47.2532 0.730791 47.3076 1.06029C47.3619 1.93897 47.3619 2.81765 47.3076 3.69632C47.1988 4.41025 46.9813 5.12417 46.8726 5.89301C46.8182 6.00285 46.8726 6.11268 46.9269 6.38727C48.3407 6.22252 52.31 5.56351 53.8325 5.06925C54.3762 4.9045 54.8112 4.84958 55.0287 5.50859Z" fill="#7165FF"/>
<path d="M64.6292 21.5993C64.738 21.7092 64.4661 22.1485 64.303 22.3682C64.0855 22.5879 63.8136 22.6977 63.5417 22.9174C61.8561 24.3452 60.1705 25.828 58.4305 27.3657C59.3005 29.1779 59.8443 31.1 60.0618 33.077C60.1705 34.2852 60.3336 35.5483 59.7899 36.7565C59.083 38.5139 57.5062 39.2827 55.8206 39.6671C54.7874 39.8868 53.6456 39.9417 52.5581 39.9417C50.655 39.8868 48.915 38.0745 48.7519 36.1524C48.5888 33.8459 49.6219 31.9787 51.1987 30.3861C52.0687 29.5623 52.9931 28.8484 53.9718 28.0796C53.3193 26.7616 52.6668 25.4435 52.1231 24.0157C51.4706 22.478 50.7094 20.8854 50.5462 19.2928C50.2744 16.9863 50.7094 14.6798 52.7212 13.0872C53.8087 12.2085 55.1137 12.2634 56.3643 12.7027C57.0168 12.9224 57.2887 13.5265 57.2887 14.2953C57.2343 15.6683 56.7993 16.9863 56.0924 18.1396C55.7118 18.7436 55.4399 19.4027 55.0049 19.9518C54.4612 20.6657 54.5699 21.2698 55.0049 21.8739C55.7662 23.0821 56.5818 24.2354 57.4518 25.5534C57.9955 25.114 58.4849 24.7296 58.9743 24.2903C60.0074 23.4116 61.0405 22.478 62.128 21.6543C62.563 21.3248 63.2155 21.2149 63.8136 21.16C64.0855 21.1051 64.4661 21.3797 64.6292 21.5993ZM54.0806 13.7462C53.7 14.1306 53.3193 14.6798 53.3193 15.174C53.265 16.3273 53.4281 17.4256 53.5368 18.8535C54.8962 17.4805 55.6574 15.7781 55.6574 14.515C55.6031 14.1306 55.4399 13.5814 55.2224 13.5265C54.8962 13.4167 54.2981 13.5265 54.0806 13.7462ZM53.4825 38.6237C55.1137 38.5688 56.4731 37.3057 56.4731 35.768C56.4731 33.6262 55.9293 31.6492 54.8418 29.6173C53.9175 30.3861 53.1018 30.9902 52.4493 31.7041C51.3619 32.9123 50.6006 34.2852 50.8181 36.0426C51.0356 37.5253 52.1775 38.6786 53.4825 38.6237Z" fill="#7165FF"/>
<path d="M75.7271 21.5993C75.8359 21.7092 75.564 22.1485 75.4009 22.3682C75.1834 22.5879 74.9115 22.6977 74.6396 22.9174C72.954 24.3452 71.2684 25.828 69.5284 27.3657C70.3984 29.1779 70.9422 31.1 71.1597 33.077C71.2684 34.2852 71.4315 35.5483 70.8878 36.7565C70.1809 38.5139 68.6041 39.2827 66.9185 39.6671C65.8853 39.8868 64.7435 39.9417 63.656 39.9417C61.7529 39.8868 60.0129 38.0745 59.8498 36.1524C59.6867 33.8459 60.7198 31.9787 62.2966 30.3861C63.1666 29.5623 64.091 28.8484 65.0697 28.0796C64.4172 26.7616 63.7647 25.4435 63.221 24.0157C62.5685 22.478 61.8073 20.8854 61.6441 19.2928C61.3723 16.9863 61.8073 14.6798 63.8191 13.0872C64.9066 12.2085 66.2116 12.2634 67.4622 12.7027C68.1147 12.9224 68.3866 13.5265 68.3866 14.2953C68.3322 15.6683 67.8972 16.9863 67.1903 18.1396C66.8097 18.7436 66.5378 19.4027 66.1028 19.9518C65.5591 20.6657 65.6678 21.2698 66.1028 21.8739C66.8641 23.0821 67.6797 24.2354 68.5497 25.5534C69.0934 25.114 69.5828 24.7296 70.0722 24.2903C71.1053 23.4116 72.1384 22.478 73.2259 21.6543C73.6609 21.3248 74.3134 21.2149 74.9115 21.16C75.1834 21.1051 75.564 21.3797 75.7271 21.5993ZM65.1785 13.7462C64.7979 14.1306 64.4172 14.6798 64.4172 15.174C64.3629 16.3273 64.526 17.4256 64.6347 18.8535C65.9941 17.4805 66.7553 15.7781 66.7553 14.515C66.701 14.1306 66.5378 13.5814 66.3203 13.5265C65.9941 13.4167 65.396 13.5265 65.1785 13.7462ZM64.5804 38.6237C66.2116 38.5688 67.571 37.3057 67.571 35.768C67.571 33.6262 67.0272 31.6492 65.9397 29.6173C65.0154 30.3861 64.1997 30.9902 63.5472 31.7041C62.4598 32.9123 61.6985 34.2852 61.916 36.0426C62.1335 37.5253 63.2754 38.6786 64.5804 38.6237Z" fill="#7165FF"/>
<path d="M86.9881 22.5879C87.4231 21.9288 87.9125 21.5993 89 21.6543C88.7825 22.2583 88.6737 22.6977 88.4563 23.0272C87.695 24.0157 86.9338 25.0042 86.1182 25.8829C85.3025 26.8165 84.3782 27.6952 83.6169 28.6287C81.7682 30.8254 79.3214 31.4844 76.6026 31.1C74.4277 30.7705 73.0683 29.2328 72.8508 26.9263C72.7964 26.2124 72.8508 25.4985 73.0139 24.8395C73.2858 23.6313 73.612 22.4231 74.1014 21.2698C74.8626 19.5674 75.8958 18.0846 77.527 17.0412C78.7232 16.3273 80.0826 16.1625 81.4419 16.3273C82.7469 16.492 83.0732 17.0412 82.8013 18.3043C82.3663 20.1715 81.6051 21.8739 79.9195 23.0272C79.6476 23.3018 79.3757 23.6313 79.0495 23.8509C77.2007 24.9493 77.3639 26.7616 77.527 28.5189C77.5814 29.3976 77.962 29.7271 78.7776 29.6173C79.8107 29.5074 80.7895 29.2328 81.5507 28.5189C82.9101 27.2558 84.2694 25.9378 85.52 24.6198C86.1181 24.0157 86.5532 23.3018 86.9881 22.5879ZM81.7138 17.5904C80.7351 17.2609 80.572 17.3158 80.2457 18.0846C79.6476 19.4576 79.1039 20.8305 78.5601 22.2034C78.4514 22.3682 78.5057 22.5879 78.4514 22.8075C80.5176 21.5993 81.5507 19.842 81.7138 17.5904Z" fill="#7165FF"/>
</svg>
