<svg width="280" height="280" viewBox="0 0 280 280" fill="none" xmlns="http://www.w3.org/2000/svg">
<path d="M244.266 0C246.539 0 248.811 0.758519 251.083 1.1378C251.083 6.06822 248.054 7.20603 245.402 7.96457C220.028 15.5499 203.364 34.5131 189.351 54.9934C167.763 85.7138 147.312 117.951 133.677 153.602C125.724 174.462 118.907 195.701 111.332 216.56C104.894 233.248 97.3195 249.177 85.2002 262.451C79.898 268.14 73.0808 272.691 66.6425 277.242C61.3403 280.656 54.5231 281.035 49.2209 277.622C42.7825 273.829 41.2676 266.623 42.0251 259.796C43.54 243.867 46.1911 227.559 47.3273 211.63C48.0847 201.769 47.706 191.529 47.706 181.289C47.706 177.496 46.9486 173.324 46.9486 169.531C47.3273 145.638 44.6762 122.123 43.1613 98.2295C41.6464 75.4737 37.1016 53.4763 29.1483 32.2375C26.1185 24.2729 29.1483 19.7218 37.4803 18.584C40.5102 17.8254 43.9187 18.2047 47.3273 18.2047C52.6295 18.584 56.0381 21.2388 59.0679 25.79C65.5063 36.0302 67.0212 47.4081 70.051 58.4068C76.1107 78.5078 75.732 99.7466 77.6256 120.227C79.5192 142.983 81.0341 166.118 81.0341 188.874C81.0341 208.216 78.3831 227.18 76.8681 246.522C76.8681 249.177 76.4894 251.452 75.7319 255.245C81.0342 252.211 83.3065 248.418 85.2002 244.246C93.9109 228.317 99.9706 211.63 105.652 194.563C115.498 162.705 127.618 131.605 145.039 103.16C154.508 87.9894 163.218 72.4395 172.308 57.269C183.67 39.8228 197.304 24.2729 213.968 11.378C222.679 4.55118 233.283 0.75852 244.266 0Z" fill="#7165FF"/>
</svg>
