<svg width="512" height="512" viewBox="0 0 512 512" fill="none" xmlns="http://www.w3.org/2000/svg">
<path d="M0 437C0 478.421 33.5786 512 75 512H437C478.421 512 512 478.421 512 437V75C512 33.5786 478.421 0 437 0H75C33.5786 0 0 33.5786 0 75V437Z" fill="#7165FF"/>
<mask id="mask0_1031_2078" style="mask-type:luminance" maskUnits="userSpaceOnUse" x="50" y="78" width="412" height="365">
<path d="M50 78.0684H462V442.068H50V78.0684Z" fill="white"/>
</mask>
<g mask="url(#mask0_1031_2078)">
<path d="M229.758 283.564C234.517 283.564 238.376 279.707 238.376 274.947C238.376 270.188 234.517 266.33 229.758 266.33C224.999 266.33 221.141 270.188 221.141 274.947C221.141 279.707 224.999 283.564 229.758 283.564Z" fill="white" stroke="white"/>
<path d="M347.271 240.121C350.871 240.121 353.788 237.203 353.788 233.604C353.788 230.005 350.87 227.087 347.271 227.087C343.672 227.087 340.754 230.004 340.754 233.604C340.754 237.203 343.672 240.121 347.271 240.121Z" fill="white" stroke="white"/>
<mask id="path-5-outside-1_1031_2078" maskUnits="userSpaceOnUse" x="52.25" y="96.8262" width="409" height="332" fill="black">
<rect fill="white" x="52.25" y="96.8262" width="409" height="332"/>
<path d="M306.635 260.211C319.533 274.544 326.872 295.143 325.8 313.96C325.256 323.384 322.297 336.689 311.272 346.399C297.981 358.134 284.904 357.878 277.095 353.724C271.129 350.567 268.019 345.146 268.789 339.241C269.59 333.064 271.553 325.785 273.652 318.067C278.183 301.304 283.831 280.434 280.87 258.007C280.373 254.291 280.131 250.304 280.131 246.151C290.611 248.703 300.232 253.083 306.635 260.211ZM423.149 139.046C393.246 109.536 353.15 98.7229 334.409 98.7229H333.774H333.758C319.264 98.7229 305.656 101.953 294.026 106.209C292.17 106.888 290.138 106.714 288.354 105.864C284.734 104.139 280.424 103.992 276.551 105.775C270.224 108.706 265.618 111.892 262.31 114.852C259.2 117.616 257.674 121.512 257.795 125.408C257.824 126.586 257.991 127.75 258.339 128.897C258.837 130.694 259.727 132.401 260.966 133.926L261.208 134.229C265.633 139.62 273.335 140.783 279.256 137.113C282.427 135.149 285.765 133.382 288.89 131.888C293.093 129.869 295.807 126.052 296.581 121.835C297.041 119.34 298.902 117.325 301.306 116.513C311.115 113.204 322.229 110.805 333.85 110.805H334.303C348.65 110.805 386.314 119.67 414.676 147.639C436.393 169.084 447.418 196.571 447.418 229.358C447.418 267.385 433.358 299.855 405.631 325.86C390.166 340.374 374.489 348.756 367.302 352.169C363.344 346.324 356.035 332.807 355.294 311.831C354.539 290.612 377.012 277.594 386.707 272.973C391.872 270.511 395.225 265.21 395.225 259.471V240.654C395.225 234.538 391.54 229.101 385.846 226.789C380.365 224.555 375.335 221.851 370.911 218.74C367.709 216.475 364.839 213.303 362.362 209.286C354.872 197.099 342.247 193.943 332.097 191.405C323.429 189.246 318.023 187.705 316.21 183.416C316.089 183.129 315.939 182.556 315.923 181.528C315.772 173.132 314.746 167.046 314.141 164.176C313.612 161.639 311.846 159.6 309.429 158.709C306.998 157.804 304.309 158.226 302.255 159.811C282.97 174.687 271.644 204.393 268.759 231.924C244.414 229.01 220.22 233.072 214.209 238.449C211.174 241.167 207.595 244.58 203.577 248.598C201.328 250.848 198.322 252.147 195.106 252.237L150.901 253.596C142.082 253.869 135.18 260.997 135.18 269.816V297.317C135.18 314.021 144.996 329.304 160.189 336.236C175.669 343.289 196.6 353.105 208.698 359.871C232.499 375.457 238.207 395.24 239.189 407.67C228.707 399.832 213.847 392.069 196.329 382.917C141.054 354.041 65.3622 314.519 65.3318 234.809C69.9074 149.27 132.099 110.805 174.823 110.805C185.271 110.805 194.834 112.395 203.242 114.723C205.733 115.413 207.661 117.418 208.256 119.935C209.188 123.882 211.835 127.398 215.811 129.305C218.937 130.815 222.275 132.568 225.446 134.53C231.365 138.216 239.068 137.038 243.493 131.646L243.735 131.359C244.898 129.939 245.743 128.353 246.241 126.692C246.272 126.678 246.272 126.678 246.257 126.662C246.695 125.349 246.906 123.973 246.921 122.615C246.966 118.779 245.441 114.989 242.39 112.27C239.083 109.325 234.477 106.123 228.149 103.208C224.065 101.321 219.499 101.59 215.773 103.572C214.077 104.473 212.103 104.706 210.268 104.137C200.069 100.976 188.127 98.7229 174.823 98.7229C149.27 98.7229 120.984 110.503 99.1304 130.256C79.7846 147.729 56.1197 179.989 53.2647 234.326L53.25 234.643C53.2197 273.396 68.9115 306.62 101.245 336.22C128.368 361.064 162.953 379.111 190.74 393.624C201.841 399.423 212.186 404.831 220.749 409.964C229.312 415.085 236.077 419.947 240.05 424.659C243.282 428.526 249.534 426.955 250.576 422.031C250.953 420.265 259.245 378.386 215.115 349.647L214.783 349.435C202.37 342.473 180.985 332.445 165.233 325.256C154.284 320.257 147.261 309.354 147.261 297.317V269.816C147.261 267.581 149.044 265.739 151.279 265.678L195.468 264.319C201.781 264.123 207.686 261.571 212.125 257.13C215.917 253.34 219.436 249.987 222.169 247.541C225.975 244.852 246.996 241.545 268.019 244.022C267.958 249.458 268.231 254.699 268.88 259.607C271.538 279.618 266.464 298.375 261.978 314.911C259.788 323.036 257.704 330.708 256.798 337.7C255.394 348.619 260.981 358.859 271.416 364.401C282.276 370.171 301.335 371.288 319.276 355.46C330.467 345.584 336.885 331.478 337.851 314.64C339.121 292.726 330.587 268.774 315.605 252.117C307.179 242.768 294.448 237.074 280.766 233.978C283.001 212.412 290.929 189.065 303.509 175.11C303.676 177.058 303.796 179.279 303.841 181.725C303.871 184.141 304.279 186.225 305.08 188.114C309.324 198.171 319.411 200.693 329.168 203.125C338.425 205.435 347.17 207.625 352.078 215.614C355.4 221.036 359.403 225.415 363.964 228.617C369.128 232.256 374.957 235.413 381.301 237.981C382.418 238.433 383.143 239.491 383.143 240.654V259.471C383.143 260.589 382.508 261.585 381.512 262.069C369.657 267.701 342.201 283.892 343.212 312.254C343.817 329.062 348.091 341.763 352.304 350.356C356.519 358.934 360.671 363.42 361.003 363.767C362.167 364.99 363.767 365.655 365.383 365.655C366.123 365.655 366.863 365.519 367.573 365.248C368.509 364.885 390.936 356.095 413.544 335.013C434.506 315.456 459.5 281.264 459.5 229.358C459.5 193.218 447.268 162.832 423.149 139.046Z"/>
</mask>
<path d="M306.635 260.211C319.533 274.544 326.872 295.143 325.8 313.96C325.256 323.384 322.297 336.689 311.272 346.399C297.981 358.134 284.904 357.878 277.095 353.724C271.129 350.567 268.019 345.146 268.789 339.241C269.59 333.064 271.553 325.785 273.652 318.067C278.183 301.304 283.831 280.434 280.87 258.007C280.373 254.291 280.131 250.304 280.131 246.151C290.611 248.703 300.232 253.083 306.635 260.211ZM423.149 139.046C393.246 109.536 353.15 98.7229 334.409 98.7229H333.774H333.758C319.264 98.7229 305.656 101.953 294.026 106.209C292.17 106.888 290.138 106.714 288.354 105.864C284.734 104.139 280.424 103.992 276.551 105.775C270.224 108.706 265.618 111.892 262.31 114.852C259.2 117.616 257.674 121.512 257.795 125.408C257.824 126.586 257.991 127.75 258.339 128.897C258.837 130.694 259.727 132.401 260.966 133.926L261.208 134.229C265.633 139.62 273.335 140.783 279.256 137.113C282.427 135.149 285.765 133.382 288.89 131.888C293.093 129.869 295.807 126.052 296.581 121.835C297.041 119.34 298.902 117.325 301.306 116.513C311.115 113.204 322.229 110.805 333.85 110.805H334.303C348.65 110.805 386.314 119.67 414.676 147.639C436.393 169.084 447.418 196.571 447.418 229.358C447.418 267.385 433.358 299.855 405.631 325.86C390.166 340.374 374.489 348.756 367.302 352.169C363.344 346.324 356.035 332.807 355.294 311.831C354.539 290.612 377.012 277.594 386.707 272.973C391.872 270.511 395.225 265.21 395.225 259.471V240.654C395.225 234.538 391.54 229.101 385.846 226.789C380.365 224.555 375.335 221.851 370.911 218.74C367.709 216.475 364.839 213.303 362.362 209.286C354.872 197.099 342.247 193.943 332.097 191.405C323.429 189.246 318.023 187.705 316.21 183.416C316.089 183.129 315.939 182.556 315.923 181.528C315.772 173.132 314.746 167.046 314.141 164.176C313.612 161.639 311.846 159.6 309.429 158.709C306.998 157.804 304.309 158.226 302.255 159.811C282.97 174.687 271.644 204.393 268.759 231.924C244.414 229.01 220.22 233.072 214.209 238.449C211.174 241.167 207.595 244.58 203.577 248.598C201.328 250.848 198.322 252.147 195.106 252.237L150.901 253.596C142.082 253.869 135.18 260.997 135.18 269.816V297.317C135.18 314.021 144.996 329.304 160.189 336.236C175.669 343.289 196.6 353.105 208.698 359.871C232.499 375.457 238.207 395.24 239.189 407.67C228.707 399.832 213.847 392.069 196.329 382.917C141.054 354.041 65.3622 314.519 65.3318 234.809C69.9074 149.27 132.099 110.805 174.823 110.805C185.271 110.805 194.834 112.395 203.242 114.723C205.733 115.413 207.661 117.418 208.256 119.935C209.188 123.882 211.835 127.398 215.811 129.305C218.937 130.815 222.275 132.568 225.446 134.53C231.365 138.216 239.068 137.038 243.493 131.646L243.735 131.359C244.898 129.939 245.743 128.353 246.241 126.692C246.272 126.678 246.272 126.678 246.257 126.662C246.695 125.349 246.906 123.973 246.921 122.615C246.966 118.779 245.441 114.989 242.39 112.27C239.083 109.325 234.477 106.123 228.149 103.208C224.065 101.321 219.499 101.59 215.773 103.572C214.077 104.473 212.103 104.706 210.268 104.137C200.069 100.976 188.127 98.7229 174.823 98.7229C149.27 98.7229 120.984 110.503 99.1304 130.256C79.7846 147.729 56.1197 179.989 53.2647 234.326L53.25 234.643C53.2197 273.396 68.9115 306.62 101.245 336.22C128.368 361.064 162.953 379.111 190.74 393.624C201.841 399.423 212.186 404.831 220.749 409.964C229.312 415.085 236.077 419.947 240.05 424.659C243.282 428.526 249.534 426.955 250.576 422.031C250.953 420.265 259.245 378.386 215.115 349.647L214.783 349.435C202.37 342.473 180.985 332.445 165.233 325.256C154.284 320.257 147.261 309.354 147.261 297.317V269.816C147.261 267.581 149.044 265.739 151.279 265.678L195.468 264.319C201.781 264.123 207.686 261.571 212.125 257.13C215.917 253.34 219.436 249.987 222.169 247.541C225.975 244.852 246.996 241.545 268.019 244.022C267.958 249.458 268.231 254.699 268.88 259.607C271.538 279.618 266.464 298.375 261.978 314.911C259.788 323.036 257.704 330.708 256.798 337.7C255.394 348.619 260.981 358.859 271.416 364.401C282.276 370.171 301.335 371.288 319.276 355.46C330.467 345.584 336.885 331.478 337.851 314.64C339.121 292.726 330.587 268.774 315.605 252.117C307.179 242.768 294.448 237.074 280.766 233.978C283.001 212.412 290.929 189.065 303.509 175.11C303.676 177.058 303.796 179.279 303.841 181.725C303.871 184.141 304.279 186.225 305.08 188.114C309.324 198.171 319.411 200.693 329.168 203.125C338.425 205.435 347.17 207.625 352.078 215.614C355.4 221.036 359.403 225.415 363.964 228.617C369.128 232.256 374.957 235.413 381.301 237.981C382.418 238.433 383.143 239.491 383.143 240.654V259.471C383.143 260.589 382.508 261.585 381.512 262.069C369.657 267.701 342.201 283.892 343.212 312.254C343.817 329.062 348.091 341.763 352.304 350.356C356.519 358.934 360.671 363.42 361.003 363.767C362.167 364.99 363.767 365.655 365.383 365.655C366.123 365.655 366.863 365.519 367.573 365.248C368.509 364.885 390.936 356.095 413.544 335.013C434.506 315.456 459.5 281.264 459.5 229.358C459.5 193.218 447.268 162.832 423.149 139.046Z" fill="white"/>
<path d="M306.635 260.211C319.533 274.544 326.872 295.143 325.8 313.96C325.256 323.384 322.297 336.689 311.272 346.399C297.981 358.134 284.904 357.878 277.095 353.724C271.129 350.567 268.019 345.146 268.789 339.241C269.59 333.064 271.553 325.785 273.652 318.067C278.183 301.304 283.831 280.434 280.87 258.007C280.373 254.291 280.131 250.304 280.131 246.151C290.611 248.703 300.232 253.083 306.635 260.211ZM423.149 139.046C393.246 109.536 353.15 98.7229 334.409 98.7229H333.774H333.758C319.264 98.7229 305.656 101.953 294.026 106.209C292.17 106.888 290.138 106.714 288.354 105.864C284.734 104.139 280.424 103.992 276.551 105.775C270.224 108.706 265.618 111.892 262.31 114.852C259.2 117.616 257.674 121.512 257.795 125.408C257.824 126.586 257.991 127.75 258.339 128.897C258.837 130.694 259.727 132.401 260.966 133.926L261.208 134.229C265.633 139.62 273.335 140.783 279.256 137.113C282.427 135.149 285.765 133.382 288.89 131.888C293.093 129.869 295.807 126.052 296.581 121.835C297.041 119.34 298.902 117.325 301.306 116.513C311.115 113.204 322.229 110.805 333.85 110.805H334.303C348.65 110.805 386.314 119.67 414.676 147.639C436.393 169.084 447.418 196.571 447.418 229.358C447.418 267.385 433.358 299.855 405.631 325.86C390.166 340.374 374.489 348.756 367.302 352.169C363.344 346.324 356.035 332.807 355.294 311.831C354.539 290.612 377.012 277.594 386.707 272.973C391.872 270.511 395.225 265.21 395.225 259.471V240.654C395.225 234.538 391.54 229.101 385.846 226.789C380.365 224.555 375.335 221.851 370.911 218.74C367.709 216.475 364.839 213.303 362.362 209.286C354.872 197.099 342.247 193.943 332.097 191.405C323.429 189.246 318.023 187.705 316.21 183.416C316.089 183.129 315.939 182.556 315.923 181.528C315.772 173.132 314.746 167.046 314.141 164.176C313.612 161.639 311.846 159.6 309.429 158.709C306.998 157.804 304.309 158.226 302.255 159.811C282.97 174.687 271.644 204.393 268.759 231.924C244.414 229.01 220.22 233.072 214.209 238.449C211.174 241.167 207.595 244.58 203.577 248.598C201.328 250.848 198.322 252.147 195.106 252.237L150.901 253.596C142.082 253.869 135.18 260.997 135.18 269.816V297.317C135.18 314.021 144.996 329.304 160.189 336.236C175.669 343.289 196.6 353.105 208.698 359.871C232.499 375.457 238.207 395.24 239.189 407.67C228.707 399.832 213.847 392.069 196.329 382.917C141.054 354.041 65.3622 314.519 65.3318 234.809C69.9074 149.27 132.099 110.805 174.823 110.805C185.271 110.805 194.834 112.395 203.242 114.723C205.733 115.413 207.661 117.418 208.256 119.935C209.188 123.882 211.835 127.398 215.811 129.305C218.937 130.815 222.275 132.568 225.446 134.53C231.365 138.216 239.068 137.038 243.493 131.646L243.735 131.359C244.898 129.939 245.743 128.353 246.241 126.692C246.272 126.678 246.272 126.678 246.257 126.662C246.695 125.349 246.906 123.973 246.921 122.615C246.966 118.779 245.441 114.989 242.39 112.27C239.083 109.325 234.477 106.123 228.149 103.208C224.065 101.321 219.499 101.59 215.773 103.572C214.077 104.473 212.103 104.706 210.268 104.137C200.069 100.976 188.127 98.7229 174.823 98.7229C149.27 98.7229 120.984 110.503 99.1304 130.256C79.7846 147.729 56.1197 179.989 53.2647 234.326L53.25 234.643C53.2197 273.396 68.9115 306.62 101.245 336.22C128.368 361.064 162.953 379.111 190.74 393.624C201.841 399.423 212.186 404.831 220.749 409.964C229.312 415.085 236.077 419.947 240.05 424.659C243.282 428.526 249.534 426.955 250.576 422.031C250.953 420.265 259.245 378.386 215.115 349.647L214.783 349.435C202.37 342.473 180.985 332.445 165.233 325.256C154.284 320.257 147.261 309.354 147.261 297.317V269.816C147.261 267.581 149.044 265.739 151.279 265.678L195.468 264.319C201.781 264.123 207.686 261.571 212.125 257.13C215.917 253.34 219.436 249.987 222.169 247.541C225.975 244.852 246.996 241.545 268.019 244.022C267.958 249.458 268.231 254.699 268.88 259.607C271.538 279.618 266.464 298.375 261.978 314.911C259.788 323.036 257.704 330.708 256.798 337.7C255.394 348.619 260.981 358.859 271.416 364.401C282.276 370.171 301.335 371.288 319.276 355.46C330.467 345.584 336.885 331.478 337.851 314.64C339.121 292.726 330.587 268.774 315.605 252.117C307.179 242.768 294.448 237.074 280.766 233.978C283.001 212.412 290.929 189.065 303.509 175.11C303.676 177.058 303.796 179.279 303.841 181.725C303.871 184.141 304.279 186.225 305.08 188.114C309.324 198.171 319.411 200.693 329.168 203.125C338.425 205.435 347.17 207.625 352.078 215.614C355.4 221.036 359.403 225.415 363.964 228.617C369.128 232.256 374.957 235.413 381.301 237.981C382.418 238.433 383.143 239.491 383.143 240.654V259.471C383.143 260.589 382.508 261.585 381.512 262.069C369.657 267.701 342.201 283.892 343.212 312.254C343.817 329.062 348.091 341.763 352.304 350.356C356.519 358.934 360.671 363.42 361.003 363.767C362.167 364.99 363.767 365.655 365.383 365.655C366.123 365.655 366.863 365.519 367.573 365.248C368.509 364.885 390.936 356.095 413.544 335.013C434.506 315.456 459.5 281.264 459.5 229.358C459.5 193.218 447.268 162.832 423.149 139.046Z" stroke="white" stroke-width="2" mask="url(#path-5-outside-1_1031_2078)"/>
</g>
</svg>
